<svg width="32" height="32" viewBox="0 0 32 32" fill="none" xmlns="http://www.w3.org/2000/svg">
<rect width="32" height="32" fill="#EEEEEE"/>
<path d="M7.64259 20.1762C7.13848 19.4452 6.89744 18.5707 6.95751 17.6907V14.0988C6.89392 13.2124 7.13131 12.3302 7.6328 11.5893C8.08626 11.0178 8.86106 10.7337 9.95719 10.7369C11.0533 10.7401 11.7955 10.9907 12.1837 11.4888C12.6571 12.106 12.8881 12.8691 12.8345 13.6391V14.482H10.8087V13.5672C10.8059 13.3266 10.7847 13.0864 10.745 12.8489C10.7205 12.6769 10.6399 12.5173 10.515 12.3939C10.438 12.3292 10.3485 12.2803 10.2519 12.2498C10.1553 12.2194 10.0534 12.2081 9.9523 12.2167C9.80706 12.1955 9.65868 12.2186 9.52734 12.2829C9.396 12.3471 9.28808 12.4494 9.21828 12.5759C9.08961 12.9122 9.03298 13.2708 9.0519 13.6295V18.1887C9.02958 18.5498 9.09498 18.9108 9.24275 19.2423C9.31335 19.3619 9.41812 19.4587 9.54418 19.5209C9.67023 19.583 9.81208 19.6077 9.9523 19.5919C10.0901 19.611 10.2305 19.587 10.3535 19.5234C10.4765 19.4597 10.5759 19.3597 10.6374 19.2376C10.7557 18.9006 10.8072 18.5446 10.7891 18.1887V17.2309H12.815V18.0594C12.8746 18.8407 12.6625 19.6188 12.2131 20.2672C11.7824 20.794 11.0386 21.0526 9.98166 21.0526C8.92468 21.0526 8.09768 20.7653 7.64259 20.1762Z" fill="#111111"/>
<path d="M15.4668 10.9474H17.8111L19.7894 20.8421H17.8408L17.4896 18.6558H15.8476L15.452 20.828H13.4736L15.4668 10.9474ZM17.272 17.4119L16.6488 13.4352L16.0306 17.4119H17.272Z" fill="#111111"/>
<path d="M21.1697 12.4384H19.579V10.9474H24.8421V12.4384H23.271V20.8421H21.1648L21.1697 12.4384Z" fill="#111111"/>
</svg>
